<svg xmlns="http://www.w3.org/2000/svg" viewBox="0 0 512 512" width="512" height="512" role="img" aria-label="Amusement Park Games">
  <rect width="512" height="512" rx="112" fill="#5b3d94"/>
  <rect width="512" height="512" rx="112" fill="url(#g)"/>
  <defs>
    <radialGradient id="g" cx="0.5" cy="0.28" r="0.9">
      <stop offset="0" stop-color="#7d61c4"/>
      <stop offset="1" stop-color="#5b3d94"/>
    </radialGradient>
  </defs>
  <!-- legs + ground -->
  <g stroke="#f7f1e6" stroke-width="14" stroke-linecap="round" fill="none">
    <path d="M256 236 L188 418"/>
    <path d="M256 236 L324 418"/>
    <path d="M150 418 L362 418"/>
  </g>
  <!-- wheel -->
  <circle cx="256" cy="236" r="150" fill="none" stroke="#f6ce45" stroke-width="16"/>
  <g stroke="#f6ce45" stroke-width="8" stroke-linecap="round">
    <path d="M256 236 L406 236"/>
    <path d="M256 236 L362 130"/>
    <path d="M256 236 L256 86"/>
    <path d="M256 236 L150 130"/>
    <path d="M256 236 L106 236"/>
    <path d="M256 236 L150 342"/>
    <path d="M256 236 L256 386"/>
    <path d="M256 236 L362 342"/>
  </g>
  <!-- cabins -->
  <g fill="#f18a5d" stroke="#fffdf6" stroke-width="4">
    <circle cx="406" cy="236" r="17"/>
    <circle cx="362" cy="130" r="17"/>
    <circle cx="256" cy="86" r="17"/>
    <circle cx="150" cy="130" r="17"/>
    <circle cx="106" cy="236" r="17"/>
    <circle cx="150" cy="342" r="17"/>
    <circle cx="256" cy="386" r="17"/>
    <circle cx="362" cy="342" r="17"/>
  </g>
  <!-- hub -->
  <circle cx="256" cy="236" r="26" fill="#f6ce45" stroke="#fffdf6" stroke-width="5"/>
</svg>
